# xmcd
#
# Track frame offsets: 
#        150
#        21082
#        41646
#        60909
#        86762
#        107457
#        124830
#        142735
#        162506
#        185226
#
# Disc length: 2692 seconds
#
# Revision: 9
# Processed by: cddbd v1.5.2PL0 Copyright (c) Steve Scherf et al.
# Submitted via: ExactAudioCopyFreeDBPlugin 1.0
#
DISCID=800a820a
DTITLE=Beth Hart and Joe Bonamassa - Black Coffee
DYEAR=2018
DGENRE=Blues
TTITLE0=Give It Everything You Got
TTITLE1=Damn Your Eyes
TTITLE2=Black Coffee
TTITLE3=Lullaby Of The Leaves
TTITLE4=Why Don't You Do Right
TTITLE5=Saved
TTITLE6=Sitting On Top Of The World
TTITLE7=Joy
TTITLE8=Soul On Fire
TTITLE9=Addicted
EXTD=
EXTT0=
EXTT1=
EXTT2=
EXTT3=
EXTT4=
EXTT5=
EXTT6=
EXTT7=
EXTT8=
EXTT9=
PLAYORDER=
